<?xml version="1.0" standalone="no"?>
<!DOCTYPE svg PUBLIC "-//W3C//DTD SVG 20010904//EN"
 "http://www.w3.org/TR/2001/REC-SVG-20010904/DTD/svg10.dtd">
<svg version="1.0" xmlns="http://www.w3.org/2000/svg"
 width="166.000000pt" height="234.000000pt" viewBox="0 0 166.000000 234.000000"
 preserveAspectRatio="xMidYMid meet" >
<g transform="translate(0.000000,234.000000) scale(0.100000,-0.100000)"
fill="#4c627b" stroke="none">
<path d="M715 2289 c-321 -50 -585 -292 -660 -606 -26 -107 -16 -350 18 -488
83 -328 266 -644 562 -968 87 -95 179 -177 201 -177 7 0 64 52 127 115 554
556 793 1225 592 1662 -128 279 -383 452 -689 467 -50 3 -118 1 -151 -5z m277
-103 c281 -71 475 -272 533 -550 56 -272 -50 -638 -290 -996 -103 -155 -187
-259 -310 -386 l-95 -99 -95 99 c-310 321 -527 700 -591 1033 -23 119 -23 299
-1 383 84 315 361 532 688 539 41 0 102 -8 161 -23z" />
<path d="M616 1729 c-108 -105 -198 -199 -201 -209 -10 -33 12 -59 53 -62 l37
-3 3 -175 c2 -150 5 -177 19 -187 23 -18 213 -18 236 0 14 10 17 34 19 142 l3
130 48 3 47 3 0 -130 c0 -162 -1 -161 140 -161 145 0 140 -7 140 206 l0 174
33 0 c38 0 57 15 57 45 0 29 -388 415 -417 415 -16 0 -83 -59 -217 -191z m351
-51 c113 -113 129 -133 117 -145 -11 -11 -14 -52 -14 -189 l0 -174 -50 0 -50
0 0 128 c0 86 -4 132 -12 140 -8 8 -51 12 -130 12 -106 0 -118 -2 -128 -19 -5
-11 -10 -74 -10 -141 l0 -121 -47 3 -48 3 -3 174 c-2 113 -7 179 -14 188 -9
12 14 40 118 144 71 71 131 129 134 129 2 0 64 -59 137 -132z"/>
</g>
</svg>
