<?xml version="1.0" standalone="no"?>
<!DOCTYPE svg PUBLIC "-//W3C//DTD SVG 20010904//EN"
 "http://www.w3.org/TR/2001/REC-SVG-20010904/DTD/svg10.dtd">
<svg version="1.0" xmlns="http://www.w3.org/2000/svg"
 width="500.000000pt" height="500.000000pt" viewBox="0 0 500.000000 500.000000"
 preserveAspectRatio="xMidYMid meet">
<metadata>
Created by potrace 1.16, written by Peter Selinger 2001-2019
</metadata>
<g transform="translate(0.000000,500.000000) scale(0.100000,-0.100000)"
fill="#000000" stroke="none">
<path d="M775 2913 c-222 -80 -265 -333 -102 -604 44 -74 169 -227 194 -236
28 -11 153 128 228 252 77 128 106 300 69 408 -21 61 -84 132 -148 164 -68 35
-170 41 -241 16z m197 -29 c63 -21 122 -74 154 -139 24 -51 26 -63 22 -148 -3
-73 -10 -106 -34 -162 -35 -82 -111 -197 -182 -275 l-50 -55 -37 35 c-86 81
-176 222 -214 333 -48 137 -35 246 39 330 78 88 192 119 302 81z"/>
<path d="M797 2712 c-79 -80 -92 -102 -57 -102 18 0 20 -7 20 -70 l0 -70 50 0
50 0 0 56 c0 47 3 55 18 52 13 -2 18 -15 20 -56 l3 -52 50 0 49 0 0 70 c0 54
3 70 14 70 37 0 23 27 -50 101 -43 43 -81 79 -84 79 -3 0 -40 -35 -83 -78z
m175 -137 c-3 -65 -6 -75 -22 -75 -16 0 -19 9 -22 53 l-3 52 -45 0 -45 0 -3
-52 c-3 -49 -5 -53 -28 -53 -23 0 -24 2 -24 77 l0 77 47 48 47 48 51 -50 50
-49 -3 -76z"/>
<path d="M2650 2495 l0 -195 115 0 115 0 0 30 0 30 -85 0 -85 0 0 165 0 165
-30 0 -30 0 0 -195z"/>
<path d="M2928 2638 c118 -210 112 -195 112 -269 l0 -69 30 0 30 0 0 61 c0 57
5 70 70 189 39 70 70 130 70 134 0 3 -12 6 -27 6 -25 0 -34 -11 -81 -95 -30
-52 -55 -95 -57 -95 -1 0 -28 43 -59 95 -52 87 -60 95 -87 95 l-30 0 29 -52z"/>
<path d="M3430 2495 l0 -195 30 0 30 0 0 195 0 195 -30 0 -30 0 0 -195z"/>
<path d="M3600 2495 l0 -195 30 0 29 0 3 140 3 140 103 -140 c92 -125 106
-140 133 -140 l29 0 0 195 0 195 -30 0 -29 0 -3 -140 -3 -140 -103 140 c-92
125 -106 140 -133 140 l-29 0 0 -195z"/>
</g>
</svg>
